nColumns=19
nRows=51
DataType=double
version=3
OpenSimVersion=4.1
endheader
time	ground_force_1_vx	ground_force_1_vy	ground_force_1_vz	ground_force_1_px	ground_force_1_py	ground_force_1_pz	ground_force_1_mx	ground_force_1_my	ground_force_1_mz	ground_force_2_vx	ground_force_2_vy	ground_force_2_vz	ground_force_2_px	ground_force_2_py	ground_force_2_pz	ground_force_2_mx	ground_force_2_my	ground_force_2_mz
0.08	0	0	0	0.000870978	0	-0.000563253	0	0	0	-9.70827	1310.75	140.371	1.02555	0	-0.322489	0	-16.3033	0
0.09	0	0	0	0.000870978	0	-0.000563253	0	0	0	-92.1042	1484.51	67.7916	0.984028	0	-0.331491	-0	1.27456	-0
0.1	0	0	0	0.000870978	0	-0.000563253	0	0	0	-147.265	1627.35	-5.23383	0.945589	0	-0.335155	-0	14.5522	-0
0.11	0	0	0	0.000870978	0	-0.000563253	0	0	0	-142.946	1728.72	-47.7344	0.909216	0	-0.334991	-0	21.3945	-0
0.12	0	0	0	0.000870977	0	-0.000563254	0	0	0	-100.587	1806.14	-57.6897	0.87281	0	-0.334379	-0	21.7486	-0
0.13	0	0	0	0.000870977	0	-0.000563254	0	0	0	-46.4822	1830.09	-51.7131	0.837344	0	-0.334588	-0	17.4596	-0
0.14	0	0	0	0.000870976	0	-0.000563254	0	0	0	7.6325	1781.07	-45.7826	0.803078	0	-0.335145	-0	11.2984	-0
0.15	0	0	0	0.000870975	0	-0.000563255	0	0	0	60.2034	1667.07	-45.8855	0.770189	0	-0.334756	-0	5.79576	-0
0.16	0	0	0	0.000870974	0	-0.000563255	0	0	0	111.344	1494.47	-51.2915	0.738035	0	-0.333186	-0	2.43751	-0
0.17	0	0	0	0.000870973	0	-0.000563256	0	0	0	156.586	1261.59	-58.2865	0.704562	0	-0.331194	-0	1.44834	-0
0.18	0	0	0	0.000870972	0	-0.000563257	0	0	0	183.376	973.742	-61.6694	0.666097	0	-0.329408	-0	2.08982	-0
0.19	0	0	0	0.00087097	0	-0.000563258	0	0	0	180.756	662.033	-58.4999	0.619327	0	-0.328404	-0	3.22787	-0
0.2	0	0	0	0.000870969	0	-0.000563259	0	0	0	143.008	383.983	-49.2907	0.569419	0	-0.328694	-0	3.8877	-0
0.21	0	0	0	0.000870967	0	-0.00056326	0	0	0	86.1138	186.242	-35.6938	0.534226	0	-0.329722	-0	3.59413	-0
0.22	0	0	0	0.000870966	0	-0.000563261	0	0	0	38.152	75.7951	-20.9273	0.567194	0	-0.325556	-0	2.42605	-0
0.23	0	0	0	0.000870964	0	-0.000563262	0	0	0	11.8434	27.2951	-9.45088	0.787436	0	-0.298365	-0	0.824793	-0
0.24	0	0	0	0.000870962	0	-0.000563263	0	0	0	0	0	0	0.000870961	0	-0.000563264	0	0	0
0.25	0	0	0	0.00087096	0	-0.000563264	0	0	0	0	0	0	0.000870958	0	-0.000563265	0	0	0
0.26	0	0	0	0.000870957	0	-0.000563266	0	0	0	0	0	0	0.000870956	0	-0.000563267	0	0	0
0.27	0	0	0	0.000870955	0	-0.000563267	0	0	0	0	0	0	0.000870953	0	-0.000563269	0	0	0
0.28	0	0	0	0.000870952	0	-0.000563268	0	0	0	0	0	0	0.000870951	0	-0.00056327	0	0	0
0.29	0	0	0	0.00087095	0	-0.00056327	0	0	0	0	0	0	0.000870948	0	-0.000563272	0	0	0
0.3	0	0	0	0.000870947	0	-0.000563272	0	0	0	0	0	0	0.000870945	0	-0.000563274	0	0	0
0.31	0	0	0	0.000870944	0	-0.000563273	0	0	0	0	0	0	0.000870942	0	-0.000563276	0	0	0
0.32	0	0	0	0.000870941	0	-0.000563275	0	0	0	0	0	0	0.000870938	0	-0.000563278	0	0	0
0.33	-8.80867	18.8078	-6.46433	1.09868	0	-0.287556	-0	2.58911	-0	0	0	0	0.000870935	0	-0.00056328	0	0	0
0.34	-31.0443	74.3232	-15.0374	1.13725	0	-0.326066	-0	4.57057	-0	0	0	0	0.000870932	0	-0.000563282	0	0	0
0.35	-83.9334	224.325	-25.3827	1.12895	0	-0.338849	-0	5.88305	-0	0	0	0	0.000870928	0	-0.000563284	0	0	0
0.36	-142.016	488.023	-29.6616	1.11147	0	-0.344025	-0	5.80469	-0	0	0	0	0.000870924	0	-0.000563287	0	0	0
0.37	-152.81	812.51	-19.6377	1.08315	0	-0.348823	-0	3.98329	-0	0	0	0	0.00087092	0	-0.000563289	0	0	0
0.38	-149.73	1124.97	5.59912	1.04819	0	-0.354405	-0	0.742106	-0	0	0	0	0.000870916	0	-0.000563292	0	0	0
0.39	-173.741	1352.68	37.5189	1.01307	0	-0.359392	0	-2.94544	0	0	0	0	0.000870912	0	-0.000563294	0	0	0
0.4	-186.759	1480.52	62.1337	0.976563	0	-0.362723	0	-5.85655	0	0	0	0	0.000870908	0	-0.000563297	0	0	0
0.41	-170.977	1555.4	70.6753	0.936811	0	-0.364207	0	-7.08446	0	0	0	0	0.000870903	0	-0.0005633	0	0	0
0.42	-131.216	1606.09	65.805	0.894633	0	-0.363782	0	-6.43164	0	0	0	0	0.000870899	0	-0.000563303	0	0	0
0.43	-66.9701	1623.71	55.2301	0.851679	0	-0.362418	0	-4.41803	0	0	0	0	0.000870894	0	-0.000563306	0	0	0
0.44	14.1027	1593.55	46.2164	0.807655	0	-0.361242	0	-1.95321	0	0	0	0	0.000870889	0	-0.000563309	0	0	0
0.45	99.5542	1509.08	43.0658	0.762168	0	-0.360388	-0	0.109201	-0	0	0	0	0.000870884	0	-0.000563312	0	0	0
0.46	179.656	1368.93	44.7708	0.715607	0	-0.360078	-0	1.30299	-0	0	0	0	0.000870879	0	-0.000563315	0	0	0
0.47	237.619	1176.65	48.0311	0.668891	0	-0.360383	-0	1.6362	-0	0	0	0	0.000870874	0	-0.000563318	0	0	0
0.48	260.982	943.316	50.5338	0.625046	0	-0.360467	-0	1.45555	-0	0	0	0	0.000870869	0	-0.000563321	0	0	0
0.49	245.434	688.473	50.0306	0.586465	0	-0.35997	-0	1.20301	-0	0	0	0	0.000870863	0	-0.000563325	0	0	0
0.5	196.36	445.136	44.7684	0.55256	0	-0.359057	-0	1.18595	-0	0	0	0	0.000870858	0	-0.000563328	0	0	0
0.51	131.549	249.36	35.1322	0.523642	0	-0.356785	-0	1.45411	-0	0	0	0	0.000870852	0	-0.000563332	0	0	0
0.52	71.1076	117.739	23.2066	0.500469	0	-0.352949	-0	1.82294	-0	0	0	0	0.000870846	0	-0.000563335	0	0	0
0.53	28.7371	45.2945	12.0475	0.492376	0	-0.35144	-0	2.01347	-0	0	0	0	0.000870841	0	-0.000563339	0	0	0
0.54	7.86474	14.5401	4.68014	0.566268	0	-0.345674	-0	1.83165	-0	0	0	0	0.000870835	0	-0.000563343	0	0	0
0.55	0	0	0	0.000870838	0	-0.000563337	0	0	0	0	0	0	0.000870828	0	-0.000563347	0	0	0
0.56	0	0	0	0.000870832	0	-0.00056334	0	0	0	0	0	0	0.000870822	0	-0.000563351	0	0	0
0.57	0	0	0	0.000870826	0	-0.000563344	0	0	0	0	0	0	0.000870816	0	-0.000563355	0	0	0
0.58	0	0	0	0.00087082	0	-0.000563347	0	0	0	0	0	0	0.000870809	0	-0.000563359	0	0	0
